<svg width="47" height="47" viewBox="0 0 47 47" fill="none" xmlns="http://www.w3.org/2000/svg">
<path fill-rule="evenodd" clip-rule="evenodd" d="M16.6127 4.75C16.6127 2.08418 18.8611 0 21.5376 0H25.4624C28.1389 0 30.3873 2.08418 30.3873 4.75V7.5H33.3122C35.9887 7.5 38.2371 9.58418 38.2371 12.25V23.807L40.5108 24.8932C42.6945 25.9364 43.7862 28.389 42.9922 30.6649L38.5336 43.4447C38.9598 43.1189 39.3496 42.777 39.6922 42.4569C40.0765 42.0977 40.6735 42.0977 41.0578 42.4569C42.2725 43.5921 44.0817 45 46 45C46.5523 45 47 45.4477 47 46C47 46.5523 46.5523 47 46 47C43.6798 47 41.6743 45.6344 40.375 44.5289C39.0757 45.6344 37.0702 47 34.75 47C34.5386 47 34.33 46.9887 34.1247 46.9673C32.0752 46.7544 30.3118 45.5383 29.1251 44.5288C27.8258 45.6344 25.8202 47 23.5 47C21.1798 47 19.1742 45.6344 17.8749 44.5288C16.6883 45.5383 14.9248 46.7544 12.8753 46.9673C12.67 46.9887 12.4614 47 12.25 47C9.92982 47 7.92428 45.6344 6.625 44.5289C5.32572 45.6344 3.32018 47 1 47C0.447715 47 0 46.5523 0 46C0 45.4477 0.447715 45 1 45C2.91832 45 4.72754 43.5921 5.9422 42.4569C6.32654 42.0977 6.92346 42.0977 7.3078 42.4569C7.65035 42.777 8.0402 43.1189 8.46644 43.4447L4.00783 30.6649C3.21384 28.389 4.3055 25.9364 6.48917 24.8932L8.76289 23.807V12.25C8.76289 9.58418 11.0113 7.5 13.6878 7.5H16.6127V4.75ZM18.6127 7.5H28.3873V4.75C28.3873 3.27368 27.1213 2 25.4624 2H21.5376C19.8787 2 18.6127 3.27368 18.6127 4.75V7.5ZM10.7629 22.8515L21.3137 17.8112C22.6913 17.1531 24.3087 17.1531 25.6863 17.8112L36.2371 22.8515V12.25C36.2371 10.7737 34.971 9.5 33.3122 9.5H13.6878C12.029 9.5 10.7629 10.7737 10.7629 12.25V22.8515ZM12.7798 44.965C14.5077 44.7399 16.1019 43.4758 17.1922 42.4569C17.5765 42.0977 18.1735 42.0977 18.5578 42.4569C19.7725 43.5921 21.5817 45 23.5 45C25.4183 45 27.2275 43.5921 28.4422 42.4569C28.8265 42.0977 29.4235 42.0977 29.8078 42.4569C30.8981 43.4758 32.4923 44.7399 34.2202 44.965C35.3051 44.8009 36.1946 44.0773 36.5333 43.1064L41.1038 30.0061C41.5451 28.741 40.9591 27.3238 39.6487 26.6978L24.8242 19.6158C23.9919 19.2182 23.0081 19.2182 22.1758 19.6159L7.35129 26.6978C6.04092 27.3238 5.45486 28.741 5.8962 30.0061L10.4667 43.1064C10.8054 44.0773 11.6949 44.8009 12.7798 44.965Z" fill="white"/>
</svg>
