<svg width="47" height="47" viewBox="0 0 47 47" fill="none" xmlns="http://www.w3.org/2000/svg">
<path d="M1 46C3.34784 46 5.41571 44.3177 6.625 43.1875C7.83429 44.3177 9.90216 46 12.25 46C12.4256 46 12.5997 45.9906 12.772 45.9727M46 46C43.6522 46 41.5843 44.3177 40.375 43.1875C39.1657 44.3177 37.0978 46 34.75 46C34.5744 46 34.4003 45.9906 34.228 45.9727M9.76289 24.4375V12.25C9.76289 10.1789 11.5201 8.5 13.6878 8.5H17.6127M9.76289 24.4375L6.92023 25.7955C5.17321 26.6301 4.33435 28.565 4.95202 30.3355L9.52247 43.4359C10.0061 44.8222 11.2813 45.8 12.772 45.9727M9.76289 24.4375L21.7447 18.7135C22.8497 18.1857 24.1503 18.1857 25.2553 18.7135L37.2371 24.4375M37.2371 24.4375V12.25C37.2371 10.1789 35.4799 8.5 33.3122 8.5H29.3873M37.2371 24.4375L40.0798 25.7955C41.8268 26.6301 42.6656 28.565 42.048 30.3355L37.4775 43.4359C36.9939 44.8222 35.7187 45.8 34.228 45.9727M29.3873 8.5V4.75C29.3873 2.67893 27.6301 1 25.4624 1H21.5376C19.3699 1 17.6127 2.67893 17.6127 4.75V8.5M29.3873 8.5H17.6127M12.772 45.9727C14.9024 45.7514 16.7562 44.2331 17.875 43.1875C19.0843 44.3177 21.1522 46 23.5 46C25.8478 46 27.9157 44.3177 29.125 43.1875C30.2438 44.2331 32.0976 45.7514 34.228 45.9727" stroke="white" stroke-width="2" stroke-linecap="round" stroke-linejoin="round"/>
</svg>
