<svg width="45" height="45" viewBox="0 0 45 45" fill="none" xmlns="http://www.w3.org/2000/svg">
<path fill-rule="evenodd" clip-rule="evenodd" d="M38.8889 0C41.9571 0 44.4444 2.48731 44.4444 5.55556V38.8889C44.4444 41.9571 41.9571 44.4444 38.8889 44.4444H5.55556C2.48731 44.4444 0 41.9571 0 38.8889V5.55556C0 2.48731 2.48731 0 5.55556 0H38.8889ZM22.2222 25C16.9444 25 13.338 26.2535 11.4028 28.7604L11.1111 29.1667V33.3333H33.3333V29.1667C31.4815 26.3889 27.7778 25 22.2222 25ZM16.6667 16.6667C16.6667 13.5984 19.154 11.1111 22.2222 11.1111C25.2905 11.1111 27.7778 13.5984 27.7778 16.6667C27.7778 19.7349 25.2905 22.2222 22.2222 22.2222C19.154 22.2222 16.6667 19.7349 16.6667 16.6667Z" fill="white"/>
</svg>
