<svg width="119" height="49" viewBox="0 0 119 49" fill="none" xmlns="http://www.w3.org/2000/svg">
<path d="M56.8 14.432C57.1787 14.432 57.456 14.3253 57.632 14.112C57.808 13.8987 57.896 13.6453 57.896 13.352V12.792C57.896 12.4453 57.784 12.2 57.56 12.056C57.336 11.9067 57.0827 11.832 56.8 11.832H56.176V14.432H56.8ZM57.784 9.024C57.784 8.704 57.696 8.48267 57.52 8.36C57.344 8.232 57.0907 8.168 56.76 8.168H56.176V10.48H56.824C57.1333 10.48 57.3707 10.36 57.536 10.12C57.7013 9.87467 57.784 9.576 57.784 9.224V9.024ZM57.344 16.072C56.928 16.072 56.3893 16.0613 55.728 16.04C55.0667 16.0187 54.592 16.0053 54.304 16H53.536V6.624H54.92C55.256 6.624 55.64 6.61334 56.072 6.592C56.504 6.56534 56.816 6.552 57.008 6.552C57.632 6.552 58.1573 6.60267 58.584 6.704C59.016 6.80534 59.3547 6.95734 59.6 7.16C59.8453 7.36267 60.0187 7.59734 60.12 7.864C60.2267 8.13067 60.28 8.448 60.28 8.816C60.28 9.38134 60.1493 9.86667 59.888 10.272C59.6267 10.6773 59.248 10.9307 58.752 11.032C60.0107 11.144 60.64 11.8827 60.64 13.248C60.64 13.6587 60.5787 14.032 60.456 14.368C60.3333 14.6987 60.144 14.9947 59.888 15.256C59.6373 15.512 59.296 15.712 58.864 15.856C58.432 16 57.9253 16.072 57.344 16.072Z" fill="white"/>
<path d="M64.9316 15.288L64.8516 15.376C64.7982 15.44 64.7156 15.5147 64.6036 15.6C64.4969 15.6853 64.3716 15.7707 64.2276 15.856C64.0889 15.9413 63.9182 16.0133 63.7156 16.072C63.5129 16.136 63.3049 16.168 63.0916 16.168C61.6516 16.168 60.9316 15.456 60.9316 14.032C60.9316 13.7547 60.9822 13.5013 61.0836 13.272C61.1849 13.0373 61.3156 12.84 61.4756 12.68C61.6356 12.52 61.8276 12.3787 62.0516 12.256C62.2756 12.128 62.4996 12.0293 62.7236 11.96C62.9529 11.8853 63.1929 11.824 63.4436 11.776C63.6942 11.728 63.9182 11.696 64.1156 11.68C64.3129 11.664 64.5022 11.656 64.6836 11.656V11.512C64.6836 11.1867 64.5956 10.9573 64.4196 10.824C64.2489 10.6907 63.9716 10.624 63.5876 10.624C63.2569 10.624 62.9129 10.664 62.5556 10.744C62.1982 10.8187 61.9182 10.9093 61.7156 11.016L61.2036 9.928C61.5662 9.69333 62.0382 9.488 62.6196 9.312C63.2009 9.13067 63.7929 9.04 64.3956 9.04C64.9289 9.04 65.3689 9.09334 65.7156 9.2C66.0622 9.30133 66.3422 9.47734 66.5556 9.728C66.7742 9.97334 66.9289 10.288 67.0196 10.672C67.1102 11.0507 67.1556 11.5333 67.1556 12.12V15.376L67.3796 16H65.1876L64.9316 15.288ZM64.2996 14.76C64.3689 14.76 64.4329 14.7467 64.4916 14.72C64.5556 14.688 64.6036 14.6587 64.6356 14.632C64.6676 14.6 64.6836 14.584 64.6836 14.584V12.664C64.3582 12.664 64.0996 12.7547 63.9076 12.936C63.7156 13.112 63.6196 13.3867 63.6196 13.76C63.6196 14.4267 63.8462 14.76 64.2996 14.76Z" fill="white"/>
<path d="M70.0507 16.168C69.3307 16.168 68.8267 15.952 68.5387 15.52C68.256 15.088 68.1147 14.3573 68.1147 13.328V10.608H67.5627V9.496L68.5067 9.2L69.3227 7.336H70.7307V9.2H72.0427V10.608H70.7067V13.584C70.7067 14.0107 70.768 14.2933 70.8907 14.432C71.0134 14.5707 71.2027 14.64 71.4587 14.64C71.5707 14.64 71.672 14.6267 71.7627 14.6C71.8534 14.5733 71.928 14.536 71.9867 14.488V15.576C71.9067 15.656 71.8027 15.736 71.6747 15.816C71.5467 15.8907 71.3333 15.968 71.0347 16.048C70.7413 16.128 70.4134 16.168 70.0507 16.168Z" fill="white"/>
<path d="M76.341 11.864C76.341 11.1867 76.3063 10.7067 76.237 10.424C76.1677 10.1413 76.0397 10 75.853 10C75.693 10 75.5623 10.0293 75.461 10.088C75.3597 10.1413 75.285 10.2293 75.237 10.352C75.189 10.4693 75.157 10.592 75.141 10.72C75.1303 10.8427 75.125 11 75.125 11.192V11.864H76.341ZM75.701 16.168C75.1037 16.168 74.5837 16.0773 74.141 15.896C73.7037 15.7147 73.357 15.4613 73.101 15.136C72.8503 14.8107 72.6663 14.4453 72.549 14.04C72.4317 13.6293 72.373 13.1733 72.373 12.672C72.373 11.4773 72.677 10.5733 73.285 9.96C73.893 9.34667 74.7437 9.04 75.837 9.04C76.8877 9.04 77.6397 9.288 78.093 9.784C78.5463 10.2747 78.773 11.0667 78.773 12.16V13.048H75.117V13.2C75.117 13.5147 75.149 13.7733 75.213 13.976C75.2823 14.1787 75.381 14.328 75.509 14.424C75.637 14.52 75.7677 14.584 75.901 14.616C76.0343 14.648 76.197 14.664 76.389 14.664C76.5757 14.664 76.7757 14.64 76.989 14.592C77.2077 14.544 77.4263 14.4693 77.645 14.368C77.869 14.2667 78.0557 14.1467 78.205 14.008L78.677 14.816C78.4797 15.136 78.189 15.4053 77.805 15.624C77.4263 15.8373 77.061 15.9813 76.709 16.056C76.357 16.1307 76.021 16.168 75.701 16.168Z" fill="white"/>
<path d="M83.0956 15.288L83.0156 15.376C82.9623 15.44 82.8796 15.5147 82.7676 15.6C82.661 15.6853 82.5356 15.7707 82.3916 15.856C82.253 15.9413 82.0823 16.0133 81.8796 16.072C81.677 16.136 81.469 16.168 81.2556 16.168C79.8156 16.168 79.0956 15.456 79.0956 14.032C79.0956 13.7547 79.1463 13.5013 79.2476 13.272C79.349 13.0373 79.4796 12.84 79.6396 12.68C79.7996 12.52 79.9916 12.3787 80.2156 12.256C80.4396 12.128 80.6636 12.0293 80.8876 11.96C81.117 11.8853 81.357 11.824 81.6076 11.776C81.8583 11.728 82.0823 11.696 82.2796 11.68C82.477 11.664 82.6663 11.656 82.8476 11.656V11.512C82.8476 11.1867 82.7596 10.9573 82.5836 10.824C82.413 10.6907 82.1356 10.624 81.7516 10.624C81.421 10.624 81.077 10.664 80.7196 10.744C80.3623 10.8187 80.0823 10.9093 79.8796 11.016L79.3676 9.928C79.7303 9.69333 80.2023 9.488 80.7836 9.312C81.365 9.13067 81.957 9.04 82.5596 9.04C83.093 9.04 83.533 9.09334 83.8796 9.2C84.2263 9.30133 84.5063 9.47734 84.7196 9.728C84.9383 9.97334 85.093 10.288 85.1836 10.672C85.2743 11.0507 85.3196 11.5333 85.3196 12.12V15.376L85.5436 16H83.3516L83.0956 15.288ZM82.4636 14.76C82.533 14.76 82.597 14.7467 82.6556 14.72C82.7196 14.688 82.7676 14.6587 82.7996 14.632C82.8316 14.6 82.8476 14.584 82.8476 14.584V12.664C82.5223 12.664 82.2636 12.7547 82.0716 12.936C81.8796 13.112 81.7836 13.3867 81.7836 13.76C81.7836 14.4267 82.0103 14.76 82.4636 14.76Z" fill="white"/>
<path d="M90.2547 14.936C90.2227 15.0107 90.1561 15.1093 90.0547 15.232C89.9587 15.3547 89.8307 15.4907 89.6707 15.64C89.5107 15.784 89.3134 15.9067 89.0788 16.008C88.8441 16.1147 88.6067 16.168 88.3667 16.168C87.6147 16.168 87.0761 15.944 86.7507 15.496C86.4307 15.048 86.2708 14.3013 86.2708 13.256V10.408L85.9908 10.12V9.2H88.8947V13.76C88.8894 14 88.9294 14.1787 89.0147 14.296C89.1001 14.408 89.2547 14.464 89.4787 14.464C89.5107 14.464 89.5401 14.464 89.5667 14.464C89.5934 14.4587 89.6201 14.4533 89.6467 14.448C89.6734 14.4373 89.6948 14.4293 89.7108 14.424C89.7321 14.4187 89.7561 14.4107 89.7827 14.4C89.8094 14.384 89.8307 14.3707 89.8467 14.36C89.8627 14.3493 89.8841 14.336 89.9108 14.32C89.9374 14.2987 89.9561 14.2827 89.9668 14.272C89.9828 14.2613 90.0041 14.2453 90.0307 14.224C90.0627 14.1973 90.0868 14.1787 90.1028 14.168V10.408L89.6707 10.12V9.2H92.7188V16H90.5027L90.2547 14.936Z" fill="white"/>
<path d="M56.696 25.688C57.1013 25.688 57.4107 25.4373 57.624 24.936C57.8427 24.4347 57.952 23.608 57.952 22.456V21.648C57.952 20.8053 57.8507 20.1547 57.648 19.696C57.4453 19.2373 57.1573 19.008 56.784 19.008H56.184V25.688H56.696ZM56.944 27.056C56.752 27.056 56.4533 27.0453 56.048 27.024C55.648 27.008 55.2347 27 54.808 27H53.536V17.624H54.808C55.1653 17.6187 55.5547 17.6053 55.976 17.584C56.3973 17.5627 56.728 17.552 56.968 17.552C58.328 17.552 59.3013 17.9333 59.888 18.696C60.48 19.4587 60.776 20.5707 60.776 22.032C60.776 22.528 60.7413 23 60.672 23.448C60.608 23.896 60.4853 24.3467 60.304 24.8C60.1227 25.248 59.8933 25.6347 59.616 25.96C59.3387 26.2853 58.9707 26.5493 58.512 26.752C58.0533 26.9547 57.5307 27.056 56.944 27.056Z" fill="white"/>
<path d="M65.2082 22.864C65.2082 22.1867 65.1735 21.7067 65.1042 21.424C65.0349 21.1413 64.9069 21 64.7202 21C64.5602 21 64.4295 21.0293 64.3282 21.088C64.2269 21.1413 64.1522 21.2293 64.1042 21.352C64.0562 21.4693 64.0242 21.592 64.0082 21.72C63.9975 21.8427 63.9922 22 63.9922 22.192V22.864H65.2082ZM64.5682 27.168C63.9709 27.168 63.4509 27.0773 63.0082 26.896C62.5709 26.7147 62.2242 26.4613 61.9682 26.136C61.7175 25.8107 61.5335 25.4453 61.4162 25.04C61.2989 24.6293 61.2402 24.1733 61.2402 23.672C61.2402 22.4773 61.5442 21.5733 62.1522 20.96C62.7602 20.3467 63.6109 20.04 64.7042 20.04C65.7549 20.04 66.5069 20.288 66.9602 20.784C67.4135 21.2747 67.6402 22.0667 67.6402 23.16V24.048H63.9842V24.2C63.9842 24.5147 64.0162 24.7733 64.0802 24.976C64.1495 25.1787 64.2482 25.328 64.3762 25.424C64.5042 25.52 64.6349 25.584 64.7682 25.616C64.9015 25.648 65.0642 25.664 65.2562 25.664C65.4429 25.664 65.6429 25.64 65.8562 25.592C66.0749 25.544 66.2935 25.4693 66.5122 25.368C66.7362 25.2667 66.9229 25.1467 67.0722 25.008L67.5442 25.816C67.3469 26.136 67.0562 26.4053 66.6722 26.624C66.2935 26.8373 65.9282 26.9813 65.5762 27.056C65.2242 27.1307 64.8882 27.168 64.5682 27.168Z" fill="white"/>
<path d="M73.1178 27V19.744H71.2458V17.624H77.6937V19.744H75.8217V27H73.1178Z" fill="white"/>
<path d="M80.9712 27H78.3792V17.952L77.8992 17.664V16.92L80.4672 16.52H80.9872V21.232L81.0832 21.112C81.1472 21.0267 81.2405 20.9253 81.3632 20.808C81.4912 20.6907 81.6325 20.576 81.7872 20.464C81.9419 20.3467 82.1259 20.248 82.3392 20.168C82.5579 20.0827 82.7712 20.04 82.9792 20.04C83.7099 20.04 84.2245 20.24 84.5232 20.64C84.8272 21.04 84.9792 21.7093 84.9792 22.648C84.9792 22.68 84.9792 22.728 84.9792 22.792C84.9739 22.856 84.9712 22.9067 84.9712 22.944V27H82.3312V22.712C82.3472 22.2107 82.1339 21.96 81.6912 21.96C81.6485 21.96 81.6059 21.9627 81.5632 21.968C81.5259 21.9733 81.4859 21.9867 81.4432 22.008C81.4005 22.0293 81.3659 22.0453 81.3392 22.056C81.3179 22.0667 81.2832 22.088 81.2352 22.12C81.1925 22.152 81.1632 22.1733 81.1472 22.184C81.1365 22.1947 81.1045 22.2213 81.0512 22.264C81.0032 22.3067 80.9765 22.3307 80.9712 22.336V27Z" fill="white"/>
<path d="M85.9678 27V21.824L85.4877 21.528V20.672L87.2077 20.2H88.5437V27H85.9678ZM87.1277 19.464L85.8158 18.144V17.864L87.1277 16.552H87.4317L88.7997 17.864V18.144L87.4317 19.464H87.1277Z" fill="white"/>
<path d="M93.7434 27C93.1461 27 92.6128 26.8747 92.1434 26.624V27H89.5354V17.952L89.0554 17.664V16.92L91.6234 16.52H92.1434V20.824C92.2288 20.728 92.3221 20.6373 92.4234 20.552C92.5248 20.4667 92.6474 20.384 92.7914 20.304C92.9354 20.224 93.0981 20.16 93.2794 20.112C93.4661 20.064 93.6634 20.04 93.8714 20.04C94.7514 20.04 95.3968 20.3413 95.8074 20.944C96.2234 21.5467 96.4314 22.3813 96.4314 23.448C96.4314 23.9493 96.3754 24.4133 96.2634 24.84C96.1514 25.2613 95.9861 25.6347 95.7674 25.96C95.5488 26.2853 95.2661 26.5413 94.9194 26.728C94.5781 26.9093 94.1861 27 93.7434 27ZM92.5674 25.888C93.2821 25.888 93.6394 25.3413 93.6394 24.248V22.888C93.6394 22.4293 93.5541 22.0773 93.3834 21.832C93.2181 21.5813 93.0048 21.456 92.7434 21.456C92.5461 21.456 92.3461 21.528 92.1434 21.672V25.832C92.2234 25.8533 92.2981 25.8693 92.3674 25.88C92.4368 25.8853 92.5034 25.888 92.5674 25.888Z" fill="white"/>
<path d="M100.721 26.288L100.641 26.376C100.587 26.44 100.505 26.5147 100.393 26.6C100.286 26.6853 100.161 26.7707 100.017 26.856C99.878 26.9413 99.7073 27.0133 99.5046 27.072C99.302 27.136 99.094 27.168 98.8806 27.168C97.4406 27.168 96.7206 26.456 96.7206 25.032C96.7206 24.7547 96.7713 24.5013 96.8726 24.272C96.974 24.0373 97.1046 23.84 97.2646 23.68C97.4246 23.52 97.6166 23.3787 97.8406 23.256C98.0646 23.128 98.2886 23.0293 98.5126 22.96C98.742 22.8853 98.982 22.824 99.2326 22.776C99.4833 22.728 99.7073 22.696 99.9046 22.68C100.102 22.664 100.291 22.656 100.473 22.656V22.512C100.473 22.1867 100.385 21.9573 100.209 21.824C100.038 21.6907 99.7606 21.624 99.3766 21.624C99.046 21.624 98.702 21.664 98.3446 21.744C97.9873 21.8187 97.7073 21.9093 97.5046 22.016L96.9926 20.928C97.3553 20.6933 97.8273 20.488 98.4086 20.312C98.99 20.1307 99.582 20.04 100.185 20.04C100.718 20.04 101.158 20.0933 101.505 20.2C101.851 20.3013 102.131 20.4773 102.345 20.728C102.563 20.9733 102.718 21.288 102.809 21.672C102.899 22.0507 102.945 22.5333 102.945 23.12V26.376L103.169 27H100.977L100.721 26.288ZM100.089 25.76C100.158 25.76 100.222 25.7467 100.281 25.72C100.345 25.688 100.393 25.6587 100.425 25.632C100.457 25.6 100.473 25.584 100.473 25.584V23.664C100.147 23.664 99.8886 23.7547 99.6966 23.936C99.5046 24.112 99.4086 24.3867 99.4086 24.76C99.4086 25.4267 99.6353 25.76 100.089 25.76Z" fill="white"/>
<path d="M107.88 25.936C107.848 26.0107 107.781 26.1093 107.68 26.232C107.584 26.3547 107.456 26.4907 107.296 26.64C107.136 26.784 106.938 26.9067 106.704 27.008C106.469 27.1147 106.232 27.168 105.992 27.168C105.24 27.168 104.701 26.944 104.376 26.496C104.056 26.048 103.896 25.3013 103.896 24.256V21.408L103.616 21.12V20.2H106.52V24.76C106.514 25 106.554 25.1787 106.64 25.296C106.725 25.408 106.88 25.464 107.104 25.464C107.136 25.464 107.165 25.464 107.192 25.464C107.218 25.4587 107.245 25.4533 107.272 25.448C107.298 25.4373 107.32 25.4293 107.336 25.424C107.357 25.4187 107.381 25.4107 107.408 25.4C107.434 25.384 107.456 25.3707 107.472 25.36C107.488 25.3493 107.509 25.336 107.536 25.32C107.562 25.2987 107.581 25.2827 107.592 25.272C107.608 25.2613 107.629 25.2453 107.656 25.224C107.688 25.1973 107.712 25.1787 107.728 25.168V21.408L107.296 21.12V20.2H110.344V27H108.128L107.88 25.936Z" fill="white"/>
<path d="M111.356 27V17.952L110.876 17.664V16.92L113.444 16.52H113.964V27H111.356Z" fill="white"/>
<path d="M116.902 27.168C116.182 27.168 115.678 26.952 115.39 26.52C115.108 26.088 114.966 25.3573 114.966 24.328V21.608H114.414V20.496L115.358 20.2L116.174 18.336H117.582V20.2H118.894V21.608H117.558V24.584C117.558 25.0107 117.62 25.2933 117.742 25.432C117.865 25.5707 118.054 25.64 118.31 25.64C118.422 25.64 118.524 25.6267 118.614 25.6C118.705 25.5733 118.78 25.536 118.838 25.488V26.576C118.758 26.656 118.654 26.736 118.526 26.816C118.398 26.8907 118.185 26.968 117.886 27.048C117.593 27.128 117.265 27.168 116.902 27.168Z" fill="white"/>
<path d="M63.272 48L62.552 45.008H58.008L57.4 48H52.696L57.576 30.544L57.192 29.248H63.8L69.144 48H63.272ZM60.072 34.752L58.664 41.744H61.768L60.072 34.752Z" fill="white"/>
<path d="M75.0711 48H69.7751V29.248H71.8871C72.4525 29.248 73.3058 29.2267 74.4471 29.184C75.5885 29.1307 76.5271 29.104 77.2631 29.104C79.3325 29.104 80.9005 29.6533 81.9671 30.752C83.0338 31.8507 83.5671 33.4987 83.5671 35.696C83.5671 37.0187 83.3911 38.224 83.0391 39.312C82.6978 40.3893 82.2338 41.2747 81.6471 41.968C81.0605 42.6613 80.3938 43.1947 79.6471 43.568C78.9005 43.9413 78.1111 44.128 77.2791 44.128C77.1725 44.128 77.0605 44.128 76.9431 44.128C76.8365 44.128 76.7351 44.128 76.6391 44.128C76.5538 44.1173 76.4471 44.112 76.3191 44.112C76.2018 44.1013 76.1058 44.096 76.0311 44.096C75.9671 44.0853 75.8711 44.08 75.7431 44.08C75.6258 44.0693 75.5458 44.064 75.5031 44.064C75.4605 44.064 75.3805 44.0587 75.2631 44.048C75.1458 44.0373 75.0818 44.032 75.0711 44.032V48ZM78.3191 34.992C78.3191 34.2027 78.1058 33.5627 77.6791 33.072C77.2525 32.5813 76.6391 32.336 75.8391 32.336H75.0711V40.656H75.6631C76.5058 40.656 77.1565 40.3733 77.6151 39.808C78.0845 39.2427 78.3191 38.4267 78.3191 37.36V34.992Z" fill="white"/>
<path d="M90.0711 48H84.7751V29.248H86.8871C87.4525 29.248 88.3058 29.2267 89.4471 29.184C90.5885 29.1307 91.5271 29.104 92.2631 29.104C94.3325 29.104 95.9005 29.6533 96.9671 30.752C98.0338 31.8507 98.5671 33.4987 98.5671 35.696C98.5671 37.0187 98.3911 38.224 98.0391 39.312C97.6978 40.3893 97.2338 41.2747 96.6471 41.968C96.0605 42.6613 95.3938 43.1947 94.6471 43.568C93.9005 43.9413 93.1111 44.128 92.2791 44.128C92.1725 44.128 92.0605 44.128 91.9431 44.128C91.8365 44.128 91.7351 44.128 91.6391 44.128C91.5538 44.1173 91.4471 44.112 91.3191 44.112C91.2018 44.1013 91.1058 44.096 91.0311 44.096C90.9671 44.0853 90.8711 44.08 90.7431 44.08C90.6258 44.0693 90.5458 44.064 90.5031 44.064C90.4605 44.064 90.3805 44.0587 90.2631 44.048C90.1458 44.0373 90.0818 44.032 90.0711 44.032V48ZM93.3191 34.992C93.3191 34.2027 93.1058 33.5627 92.6791 33.072C92.2525 32.5813 91.6391 32.336 90.8391 32.336H90.0711V40.656H90.6631C91.5058 40.656 92.1565 40.3733 92.6151 39.808C93.0845 39.2427 93.3191 38.4267 93.3191 37.36V34.992Z" fill="white"/>
<path fill-rule="evenodd" clip-rule="evenodd" d="M17.1127 5.75C17.1127 2.78681 19.6066 0.5 22.5376 0.5H26.4624C29.3934 0.5 31.8873 2.78681 31.8873 5.75V8H34.3122C37.2431 8 39.7371 10.2868 39.7371 13.25V24.4917L41.7264 25.442C44.1283 26.5895 45.3464 29.301 44.4643 31.8296L40.6013 42.9022C41.1642 42.5627 41.9008 42.6258 42.3992 43.0916C43.6165 44.2293 45.2964 45.5 47 45.5C47.8284 45.5 48.5 46.1716 48.5 47C48.5 47.8284 47.8284 48.5 47 48.5C44.6989 48.5 42.715 47.2616 41.375 46.1789C40.035 47.2616 38.0511 48.5 35.75 48.5C35.5207 48.5 35.2949 48.4877 35.073 48.4647C33.0656 48.2561 31.3379 47.1583 30.1252 46.1788C28.7852 47.2614 26.8012 48.5 24.5 48.5C22.1988 48.5 20.2148 47.2614 18.8748 46.1788C17.6621 47.1583 15.9344 48.2561 13.9269 48.4647C13.7051 48.4877 13.4793 48.5 13.25 48.5C10.9489 48.5 8.96501 47.2616 7.625 46.1789C6.28499 47.2616 4.30108 48.5 2 48.5C1.17157 48.5 0.5 47.8284 0.5 47C0.5 46.1716 1.17157 45.5 2 45.5C3.70356 45.5 5.38346 44.2293 6.6008 43.0916C7.09915 42.6258 7.83577 42.5627 8.39873 42.9022L4.53573 31.8296C3.65358 29.301 4.87165 26.5895 7.27364 25.442L9.26289 24.4917V13.25C9.26289 10.2868 11.7569 8 14.6878 8H17.1127V5.75ZM20.1127 8H28.8873V5.75C28.8873 4.57106 27.8668 3.5 26.4624 3.5H22.5376C21.1332 3.5 20.1127 4.57106 20.1127 5.75V8ZM12.2629 23.0585L22.0981 18.36C23.612 17.6368 25.388 17.6368 26.9018 18.36L36.7371 23.0585V13.25C36.7371 12.0711 35.7166 11 34.3122 11H14.6878C13.2834 11 12.2629 12.0711 12.2629 13.25V23.0585ZM13.786 45.4593C15.3157 45.2316 16.7792 44.0931 17.8508 43.0916C18.4273 42.5528 19.3227 42.5528 19.8992 43.0916C21.1165 44.2293 22.7964 45.5 24.5 45.5C26.2036 45.5 27.8835 44.2293 29.1008 43.0916C29.6773 42.5528 30.5727 42.5528 31.1492 43.0916C32.2208 44.0931 33.6843 45.2316 35.214 45.4593C36.0946 45.3021 36.7942 44.7072 37.0613 43.9417L41.6317 30.8413C41.9849 29.829 41.5252 28.6707 40.4332 28.149L25.6087 21.067C24.9126 20.7345 24.0874 20.7345 23.3913 21.067L8.56681 28.149C7.47478 28.6707 7.01512 29.829 7.3683 30.8413L11.9387 43.9417C12.2058 44.7072 12.9054 45.3021 13.786 45.4593Z" fill="white"/>
</svg>
