<svg width="44" height="42" viewBox="0 0 44 42" fill="none" xmlns="http://www.w3.org/2000/svg">
<path fill-rule="evenodd" clip-rule="evenodd" d="M0.75 2.75C0.75 1.64543 1.64543 0.75 2.75 0.75H9.75C10.7033 0.75 11.524 1.42277 11.7111 2.35749L13.1407 9.5H41.25C41.8461 9.5 42.411 9.76585 42.791 10.2251C43.1709 10.6844 43.3263 11.2892 43.2146 11.8747L40.4146 26.5572L40.4117 26.5721C40.1602 27.8382 39.4714 28.9755 38.4659 29.785C37.4659 30.5899 36.2161 31.0196 34.9329 31H17.9571C16.6739 31.0196 15.4241 30.5899 14.4241 29.785C13.419 28.9759 12.7304 27.8392 12.4787 26.5739C12.4785 26.5733 12.4784 26.5727 12.4783 26.5721L9.55655 11.9742C9.54379 11.9217 9.53311 11.8684 9.52458 11.8145L8.11063 4.75H2.75C1.64543 4.75 0.75 3.85457 0.75 2.75ZM13.9413 13.5L16.4017 25.7929C16.4703 26.1382 16.6581 26.4483 16.9323 26.6691C17.2066 26.8898 17.5497 27.0071 17.9017 27.0004C17.9145 27.0001 17.9272 27 17.94 27H34.95C34.9628 27 34.9755 27.0001 34.9883 27.0004C35.3403 27.0071 35.6834 26.8898 35.9577 26.6691C36.2303 26.4496 36.4175 26.1418 36.4871 25.799L38.8326 13.5H13.9413ZM16.75 38C16.8881 38 17 37.8881 17 37.75C17 37.6119 16.8881 37.5 16.75 37.5C16.6119 37.5 16.5 37.6119 16.5 37.75C16.5 37.8881 16.6119 38 16.75 38ZM13 37.75C13 35.6789 14.6789 34 16.75 34C18.8211 34 20.5 35.6789 20.5 37.75C20.5 39.8211 18.8211 41.5 16.75 41.5C14.6789 41.5 13 39.8211 13 37.75ZM36 38C36.1381 38 36.25 37.8881 36.25 37.75C36.25 37.6119 36.1381 37.5 36 37.5C35.8619 37.5 35.75 37.6119 35.75 37.75C35.75 37.8881 35.8619 38 36 38ZM32.25 37.75C32.25 35.6789 33.9289 34 36 34C38.0711 34 39.75 35.6789 39.75 37.75C39.75 39.8211 38.0711 41.5 36 41.5C33.9289 41.5 32.25 39.8211 32.25 37.75Z" fill="white"/>
</svg>
