<svg width="46" height="24" viewBox="0 0 46 24" fill="none" xmlns="http://www.w3.org/2000/svg">
<path fill-rule="evenodd" clip-rule="evenodd" d="M10.7908 0.596088C13.5722 -0.167969 16.5042 -0.198016 19.3007 0.508877C22.0972 1.21577 24.6627 2.63546 26.747 4.62946L26.7523 4.63454L32.0527 9.78064L33.1686 6.47616C33.1689 6.47504 33.1693 6.47392 33.1697 6.4728C33.213 6.34131 33.2557 6.20887 33.2985 6.07619C33.5658 5.24755 33.836 4.40964 34.2893 3.73793C34.8828 2.85854 35.74 2.29631 37.0486 1.94815L44.0496 0.0937042C44.5724 -0.0447682 45.1105 0.257459 45.2644 0.775921C45.8675 2.80859 45.9546 4.89652 45.2199 6.6807C44.4669 8.50941 42.9098 9.87293 40.5431 10.5056L40.5407 10.5062L36.4011 11.602L40.5431 12.6985C42.9098 13.3311 44.4669 14.6947 45.2199 16.5234C45.9546 18.3076 45.8675 20.3955 45.2644 22.4281C45.1105 22.9466 44.5724 23.2488 44.0496 23.1104L37.0496 21.2562L37.0486 21.2559C35.74 20.9078 34.8828 20.3455 34.2893 19.4661C33.836 18.7944 33.5658 17.9565 33.2985 17.1279C33.2557 16.9952 33.213 16.8627 33.1697 16.7312C33.1693 16.7301 33.1689 16.729 33.1686 16.7279L32.0527 13.4234L26.7449 18.5767C24.6562 20.563 22.0886 21.9744 19.2923 22.6735C16.5933 23.3482 13.7701 23.3371 11.0792 22.6434C10.9859 22.6456 10.8918 22.6348 10.7995 22.6103C8.11022 21.8977 5.6489 20.5065 3.65131 18.57C3.6226 18.5422 3.59559 18.5127 3.57042 18.4816L1.61535 16.069C0.571277 14.8066 0 13.2195 0 11.5812C0 9.94139 0.572299 8.353 1.61815 7.09004C1.61841 7.08973 1.61867 7.08942 1.61893 7.0891L3.57581 4.71585C3.60001 4.6865 3.62587 4.65856 3.65326 4.63215C5.60517 2.75015 7.99619 1.38724 10.6078 0.666234C10.6657 0.637244 10.7269 0.61364 10.7908 0.596088ZM10.8275 2.68426C8.67702 3.33113 6.70769 4.47782 5.08194 6.03303L3.16056 8.36322L3.15911 8.36497C2.40995 9.26933 2 10.4068 2 11.5812C2 12.7556 2.40995 13.8931 3.15911 14.7974L3.166 14.8057L5.08584 17.175C6.70044 18.7273 8.65654 19.8756 10.7941 20.5293C12.0435 19.484 13.0616 18.1874 13.7809 16.7221C14.2177 15.8321 14.5379 14.8931 14.7361 13.9283C14.8915 13.1653 14.9711 12.3864 14.9723 11.6028C14.9665 9.82147 14.5558 8.06474 13.7711 6.46548C13.0593 5.01467 12.0566 3.72792 10.8275 2.68426ZM13.2134 21.0306C14.1638 20.0255 14.9598 18.8798 15.5716 17.6303C16.0865 16.5786 16.4633 15.4688 16.6956 14.3286C16.8805 13.4275 16.9746 12.5071 16.9746 11.5812C16.9746 9.49335 16.4963 7.43326 15.5763 5.55904C14.9584 4.30029 14.1523 3.14786 13.1892 2.13983C15.0594 1.8799 16.9684 1.98222 18.8106 2.44789C21.2707 3.06977 23.5278 4.31842 25.3618 6.07212C25.3627 6.07295 25.3635 6.07378 25.3644 6.07461L31.0576 11.602L25.3629 17.1308C23.5253 18.8773 21.2668 20.1183 18.8072 20.7332C16.9732 21.1917 15.0739 21.2904 13.2134 21.0306ZM34.0358 13.0448L35.0678 16.1012C35.1191 16.2565 35.1667 16.4025 35.2115 16.5399C35.4926 17.4017 35.6645 17.9286 35.9471 18.3473C36.2076 18.7334 36.6003 19.0669 37.5617 19.3229M37.5628 19.3232L43.5807 20.9172C43.8544 19.534 43.7836 18.288 43.3706 17.2849C42.8841 16.1034 41.8687 15.1234 40.0278 14.6309C40.0274 14.6308 40.027 14.6307 40.0266 14.6306L34.0358 13.0448M34.0358 10.1592L35.0656 7.10945L35.0678 7.10291C35.1191 6.94753 35.1667 6.80157 35.2115 6.66414C35.4926 5.8024 35.6645 5.27543 35.9471 4.85676C36.2077 4.47058 36.6005 4.13701 37.5624 3.88101C37.5623 3.88104 37.5626 3.88098 37.5624 3.88101L43.5807 2.28689C43.8544 3.67006 43.7836 4.91607 43.3706 5.9192C42.8841 7.10065 41.8687 8.0807 40.0278 8.57313C40.0274 8.57324 40.027 8.57335 40.0266 8.57346L34.0358 10.1592ZM9.14944 9.09705C9.00111 9.09705 8.85796 9.15162 8.74726 9.25036C8.63657 9.3491 8.56607 9.48511 8.54919 9.63248C8.48636 10.1812 7.99061 10.575 7.44191 10.5122C6.89321 10.4494 6.49934 9.95362 6.56218 9.40493C6.63492 8.76971 6.93881 8.18346 7.41593 7.75786C7.89305 7.33226 8.51007 7.09705 9.14944 7.09705C9.7888 7.09705 10.4058 7.33226 10.8829 7.75786C11.3601 8.18346 11.6639 8.76971 11.7367 9.40493C11.7995 9.95362 11.4057 10.4494 10.857 10.5122C10.3083 10.575 9.81252 10.1812 9.74968 9.63248C9.7328 9.48511 9.6623 9.3491 9.55161 9.25036C9.44092 9.15162 9.29777 9.09705 9.14944 9.09705Z" fill="white"/>
</svg>
