<svg width="50" height="42" viewBox="0 0 50 42" fill="none" xmlns="http://www.w3.org/2000/svg">
<path d="M35.6 40.85H14.4C12.1715 40.865 10.0018 40.1352 8.23541 38.7764C6.469 37.4176 5.20709 35.5078 4.65 33.35L1.575 21.95H48.425L45.35 33.5C44.7648 35.6299 43.4908 37.5061 41.727 38.8358C39.9632 40.1654 37.8087 40.8737 35.6 40.85Z" stroke="white" stroke-width="2" stroke-linecap="round" stroke-linejoin="round"/>
<path d="M37.775 21.2501C37.775 18.2501 33.225 15.0751 30.275 15.0751C29.2241 15.08 28.1949 15.3741 27.3 15.9251C26.965 14.5174 26.1766 13.2589 25.0563 12.3432C23.936 11.4274 22.5458 10.9053 21.0997 10.857C19.6535 10.8087 18.2316 11.2369 17.0527 12.0759C15.8738 12.9148 15.0032 14.1179 14.575 15.5001C13.9174 15.2253 13.2127 15.081 12.5 15.0751C9.475 15.0751 5 18.2501 5 21.2501C5 21.4751 5 21.7001 5 21.9501H37.7C37.725 21.7001 37.775 21.4751 37.775 21.2501Z" stroke="white" stroke-width="2" stroke-linecap="round" stroke-linejoin="round"/>
<path d="M38.9 9.9499C41.3853 9.9499 43.4 7.97996 43.4 5.5499C43.4 3.11985 41.3853 1.1499 38.9 1.1499C36.4147 1.1499 34.4 3.11985 34.4 5.5499C34.4 7.97996 36.4147 9.9499 38.9 9.9499Z" stroke="white" stroke-width="2" stroke-linecap="round" stroke-linejoin="round"/>
</svg>
