<svg width="49" height="42" viewBox="0 0 49 42" fill="none" xmlns="http://www.w3.org/2000/svg">
<path fill-rule="evenodd" clip-rule="evenodd" d="M0.206148 21.1919C0.395379 20.9449 0.688826 20.8 1.00001 20.8H47.85C48.1606 20.8 48.4536 20.9444 48.6429 21.1907C48.8322 21.4369 48.8963 21.7572 48.8163 22.0573L45.7393 33.615C45.0956 35.9579 43.6942 38.0218 41.754 39.4844C39.8152 40.9459 37.4474 41.7249 35.0197 41.7001H13.8283C11.3781 41.7158 8.99284 40.9131 7.05071 39.4191C5.10912 37.9256 3.72164 35.8268 3.10814 33.4554L0.0345158 22.0605C-0.0465251 21.76 0.0169182 21.439 0.206148 21.1919ZM2.30549 22.8L5.04332 32.9501C5.5447 34.8921 6.68036 36.611 8.27013 37.8339C9.8599 39.0568 11.8126 39.7136 13.8183 39.7001L13.825 39.7L35.0357 39.7001C37.0236 39.7214 38.9626 39.084 40.55 37.8873C42.1366 36.6913 43.2827 35.004 43.8098 33.0885L43.8107 33.0851L46.5489 22.8H2.30549Z" fill="white"/>
<path fill-rule="evenodd" clip-rule="evenodd" d="M15.8979 11.1112C17.2554 10.1452 18.8928 9.65199 20.558 9.70761C22.2233 9.76322 23.8241 10.3645 25.1142 11.419C26.0841 12.2118 26.8379 13.2277 27.3163 14.372C28.0726 14.0816 28.8784 13.929 29.6953 13.9252L29.7 13.9252C31.4726 13.9252 33.5586 14.8478 35.1693 16.0976C36.7536 17.327 38.2 19.1289 38.2 21.1002C38.2 21.2823 38.1798 21.449 38.1629 21.5747C38.1566 21.6208 38.1511 21.6601 38.146 21.6957C38.1353 21.7715 38.127 21.8301 38.12 21.8997C38.0689 22.4109 37.6387 22.8002 37.125 22.8002H4.42499C3.8727 22.8002 3.42499 22.3524 3.42499 21.8002V21.1002C3.42499 19.1348 4.84509 17.3332 6.42519 16.0995C8.03094 14.8457 10.1173 13.9252 11.925 13.9252H11.9333C12.4316 13.9293 12.9267 13.9907 13.409 14.1075C13.9618 12.9147 14.8173 11.8801 15.8979 11.1112ZM20.4913 11.7065C19.2642 11.6655 18.0578 12.0289 17.0575 12.7407C16.0572 13.4526 15.3185 14.4734 14.9552 15.6461C14.8718 15.9153 14.6787 16.1367 14.4235 16.2561C14.1682 16.3754 13.8744 16.3815 13.6145 16.2729C13.0777 16.0486 12.5026 15.9305 11.9209 15.9252C10.704 15.9266 9.0425 16.5933 7.65603 17.6759C6.37612 18.6752 5.58498 19.8239 5.44675 20.8002H36.1777C36.037 19.8286 35.2356 18.6805 33.9432 17.6777C32.5423 16.5907 30.8796 15.926 29.7023 15.9252C28.8358 15.9297 27.9872 16.1723 27.2493 16.6267C26.9761 16.7949 26.6388 16.8218 26.3424 16.6991C26.046 16.5763 25.8265 16.3188 25.7522 16.0067C25.4679 14.8124 24.799 13.7445 23.8484 12.9675C22.8979 12.1905 21.7183 11.7475 20.4913 11.7065Z" fill="white"/>
<path fill-rule="evenodd" clip-rule="evenodd" d="M38.325 2C36.3707 2 34.825 3.5433 34.825 5.4C34.825 7.2567 36.3707 8.8 38.325 8.8C40.2793 8.8 41.825 7.2567 41.825 5.4C41.825 3.5433 40.2793 2 38.325 2ZM32.825 5.4C32.825 2.3966 35.3087 0 38.325 0C41.3413 0 43.825 2.3966 43.825 5.4C43.825 8.40341 41.3413 10.8 38.325 10.8C35.3088 10.8 32.825 8.4034 32.825 5.4Z" fill="white"/>
</svg>
