<svg width="41" height="50" viewBox="0 0 41 50" fill="none" xmlns="http://www.w3.org/2000/svg">
<path d="M38.2813 22.6563V21.875C38.2755 17.7835 36.8758 13.8161 34.3129 10.6268C31.75 7.43753 28.1768 5.21673 24.1824 4.33054C24.2023 4.18989 24.2145 4.04824 24.2188 3.90625C24.2188 2.87025 23.8072 1.87668 23.0746 1.14411C22.3421 0.41155 21.3485 0 20.3125 0C19.2765 0 18.2829 0.41155 17.5504 1.14411C16.8178 1.87668 16.4063 2.87025 16.4063 3.90625C16.4106 4.04824 16.4227 4.18989 16.4426 4.33054C12.4482 5.21673 8.87506 7.43753 6.31212 10.6268C3.74918 13.8161 2.34948 17.7835 2.34375 21.875V22.6563C1.72236 22.6569 1.12661 22.9041 0.687218 23.3435C0.247826 23.7829 0.000678278 24.3786 0 25V25.7813C0.000678278 26.4027 0.247826 26.9984 0.687218 27.4378C1.12661 27.8772 1.72236 28.1243 2.34375 28.125H7.2086C7.20705 28.2289 7.21562 28.3326 7.23421 28.4348L8.49839 34.7561C7.66046 35.283 6.9528 35.9929 6.42854 36.8324C5.80172 37.848 5.46943 39.0177 5.46875 40.2111V40.44L4.53672 42.2982L4.05964 42.2028C3.94629 42.1801 3.82932 42.1828 3.71716 42.2108C3.60501 42.2388 3.50045 42.2913 3.41105 42.3646C3.32164 42.4379 3.2496 42.5301 3.20014 42.6345C3.15068 42.739 3.12501 42.8532 3.125 42.9688V48.4375C3.125 48.6447 3.20731 48.8434 3.35382 48.99C3.50034 49.1365 3.69905 49.2188 3.90625 49.2188H19.5313C19.7385 49.2188 19.9372 49.1365 20.0837 48.99C20.2302 48.8434 20.3125 48.6447 20.3125 48.4375V46.0938C20.3112 45.989 20.2886 45.8856 20.246 45.7899C20.2034 45.6942 20.1418 45.6082 20.0648 45.5372L27.0222 40.4755C27.098 40.411 27.1661 40.3379 27.2251 40.2577L34.808 28.125H38.2813C38.9027 28.1243 39.4984 27.8772 39.9378 27.4378C40.3772 26.9984 40.6243 26.4027 40.625 25.7813V25C40.6243 24.3786 40.3772 23.7829 39.9378 23.3435C39.4984 22.9041 38.9027 22.6569 38.2813 22.6563ZM17.9688 3.90625C17.9688 3.28465 18.2157 2.68851 18.6552 2.24897C19.0948 1.80943 19.6909 1.5625 20.3125 1.5625C20.9341 1.5625 21.5302 1.80943 21.9698 2.24897C22.4093 2.68851 22.6563 3.28465 22.6563 3.90625C22.6563 3.95966 22.6465 4.01016 22.6431 4.06242C21.0963 3.8542 19.5287 3.8542 17.9819 4.06242C17.9785 4.01016 17.9688 3.95966 17.9688 3.90625ZM3.90625 21.875C3.90625 21.6113 3.93348 21.3544 3.94583 21.0938H28.9063C29.1135 21.0938 29.3122 21.0114 29.4587 20.8649C29.6052 20.7184 29.6875 20.5197 29.6875 20.3125C29.6875 20.1053 29.6052 19.9066 29.4587 19.7601C29.3122 19.6136 29.1135 19.5313 28.9063 19.5313H4.09345C4.65221 15.6279 6.59994 12.0569 9.57918 9.47379C12.5584 6.89064 16.3693 5.46857 20.3125 5.46857C24.2557 5.46857 28.0666 6.89064 31.0458 9.47379C34.0251 12.0569 35.9728 15.6279 36.5316 19.5313H32.0313C31.8241 19.5313 31.6253 19.6136 31.4788 19.7601C31.3323 19.9066 31.25 20.1053 31.25 20.3125C31.25 20.5197 31.3323 20.7184 31.4788 20.8649C31.6253 21.0114 31.8241 21.0938 32.0313 21.0938H36.6792C36.6915 21.3544 36.7188 21.6113 36.7188 21.875V22.6563H3.90625V21.875ZM6.94844 40.9752C7.00295 40.8665 7.03131 40.7466 7.03125 40.625V40.2111C7.03183 39.3087 7.28287 38.4242 7.75642 37.656C8.23774 36.8868 8.91974 36.2633 9.72901 35.8528C9.88102 35.7755 10.0036 35.6506 10.078 35.4972C10.1523 35.3437 10.1745 35.1701 10.141 35.0029L8.76579 28.125H10.0781C10.8003 28.1252 11.5002 28.3758 12.0585 28.834C12.6168 29.2922 12.999 29.9298 13.1401 30.6381L13.9618 34.7298C14.0798 35.2918 14.3958 35.7927 14.8521 36.1412L17.0803 37.8082C17.4867 38.1158 17.9825 38.2819 18.4921 38.2813H20.8046C21.2774 38.2808 21.7389 38.1372 22.1284 37.8694C22.518 37.6016 22.8173 37.2221 22.987 36.7809L25.8076 29.4514C25.9583 29.0623 26.2227 28.7276 26.5664 28.491C26.9101 28.2544 27.3171 28.1268 27.7344 28.125H28.6868L25.8732 39.3794L18.1254 45.0159L6.12555 42.6159L6.94844 40.9752ZM13.562 28.125H24.7675C24.5972 28.3622 24.4567 28.6195 24.3492 28.891L21.5267 36.2248C21.4705 36.3705 21.3713 36.4958 21.2424 36.584C21.1135 36.6722 20.9608 36.7192 20.8046 36.7188H18.4921C18.3226 36.7203 18.1574 36.6651 18.0229 36.562L15.7966 34.8965C15.6415 34.7778 15.5337 34.6076 15.4926 34.4166L14.6728 30.3337C14.5092 29.5105 14.1252 28.7472 13.562 28.125ZM18.75 47.6563H4.6875V43.9217L18.75 46.7343V47.6563ZM28.519 35.2393L30.2976 28.125H32.9654L28.519 35.2393ZM39.0625 25.7813C39.0622 25.9884 38.9798 26.1869 38.8334 26.3334C38.6869 26.4798 38.4884 26.5622 38.2813 26.5625H2.34375C2.13663 26.5622 1.93807 26.4798 1.79162 26.3334C1.64517 26.1869 1.56277 25.9884 1.5625 25.7813V25C1.56277 24.7929 1.64517 24.5943 1.79162 24.4479C1.93807 24.3014 2.13663 24.219 2.34375 24.2188H38.2813C38.4884 24.219 38.6869 24.3014 38.8334 24.4479C38.9798 24.5943 39.0622 24.7929 39.0625 25V25.7813Z" fill="white"/>
</svg>
